<svg width="16" height="16" viewBox="0 0 16 16" fill="none" xmlns="http://www.w3.org/2000/svg">
  <path d="M8 12.8471C12.7706 12.8471 16 9.16394 16 8.02071C16 6.88311 12.7647 3.2 8 3.2C3.29412 3.2 0 6.88311 0 8.02071C0 9.16394 3.29412 12.8471 8 12.8471ZM8 11.1012C6.20588 11.1012 4.77647 9.69895 4.76471 8.02634C4.75882 6.30305 6.20588 4.94018 8 4.94018C9.78824 4.94018 11.2353 6.30305 11.2353 8.02634C11.2353 9.69895 9.78824 11.1012 8 11.1012ZM8 9.16957C8.66471 9.16957 9.20588 8.65146 9.20588 8.02634C9.20588 7.3956 8.66471 6.87185 8 6.87185C7.33529 6.87185 6.79412 7.3956 6.79412 8.02634C6.79412 8.65146 7.33529 9.16957 8 9.16957Z" fill="#4D4D4D" fill-opacity="0.9"/>
</svg>
