<svg width="11" height="7" viewBox="0 0 11 7" fill="none" xmlns="http://www.w3.org/2000/svg">
  <path d="M5.29064 0.490344C5.16627 0.490344 5.04564 0.513663 4.92874 0.5603C4.81183 0.606936 4.71483 0.669119 4.63772 0.746847L0.347139 5.03743C0.176138 5.20843 0.0906372 5.42607 0.0906372 5.69035C0.0906372 5.95462 0.176138 6.17226 0.347139 6.34326C0.518141 6.51426 0.735779 6.59976 1.00005 6.59976C1.26433 6.59976 1.48197 6.51426 1.65297 6.34326L5.29064 2.70559L8.9283 6.34326C9.09931 6.51426 9.31695 6.59976 9.58122 6.59976C9.8455 6.59976 10.0631 6.51426 10.2341 6.34326C10.4051 6.17226 10.4906 5.95462 10.4906 5.69035C10.4906 5.42607 10.4051 5.20843 10.2341 5.03743L5.94355 0.746847C5.85028 0.653573 5.74923 0.587348 5.64041 0.548174C5.53159 0.508999 5.415 0.489722 5.29064 0.490344Z" fill="#4D4D4D"/>
</svg>
