<svg width="8" height="8" viewBox="0 0 8 8" fill="none" xmlns="http://www.w3.org/2000/svg">
  <path fill-rule="evenodd" clip-rule="evenodd" d="M7.37529 0.775358C7.0918 0.491871 6.63214 0.491909 6.3486 0.775443L3.95403 3.17002L1.60528 0.821266C1.32179 0.537778 0.862132 0.537816 0.578597 0.821351C0.295062 1.10489 0.295024 1.56455 0.578512 1.84804L2.92726 4.19678L0.532688 6.59136C0.249153 6.87489 0.249116 7.33455 0.532603 7.61804C0.816091 7.90153 1.27575 7.90149 1.55929 7.61796L3.95386 5.22339L6.3026 7.57213C6.58609 7.85562 7.04575 7.85558 7.32929 7.57204C7.61282 7.28851 7.61286 6.82885 7.32937 6.54536L4.98063 4.19662L7.3752 1.80204C7.65874 1.51851 7.65878 1.05885 7.37529 0.775358Z" fill="#4D4D4D"/>
</svg>
